<?xml version="1.0" encoding="UTF-8" standalone="no"?>
<!-- Created with Inkscape (http://www.inkscape.org/) -->

<svg
   xmlns:dc="http://purl.org/dc/elements/1.1/"
   xmlns:cc="http://creativecommons.org/ns#"
   xmlns:rdf="http://www.w3.org/1999/02/22-rdf-syntax-ns#"
   xmlns:svg="http://www.w3.org/2000/svg"
   xmlns="http://www.w3.org/2000/svg"
   xmlns:sodipodi="http://sodipodi.sourceforge.net/DTD/sodipodi-0.dtd"
   xmlns:inkscape="http://www.inkscape.org/namespaces/inkscape"
   width="744.09448819"
   height="1052.3622047"
   id="svg8224"
   version="1.1"
   inkscape:version="0.48.2 r9819"
   sodipodi:docname="LogoError.svg"
   inkscape:export-filename="C:\Users\Matt\Documents\Matthew\Personal Projects\Paperless Homework Turn In\Documentation\icons\LogoError.png"
   inkscape:export-xdpi="7.6575379"
   inkscape:export-ydpi="7.6575379">
  <defs
     id="defs8226" />
  <sodipodi:namedview
     id="base"
     pagecolor="#ffffff"
     bordercolor="#666666"
     borderopacity="1.0"
     inkscape:pageopacity="0.0"
     inkscape:pageshadow="2"
     inkscape:zoom="0.7"
     inkscape:cx="346.60268"
     inkscape:cy="536.73676"
     inkscape:document-units="px"
     inkscape:current-layer="layer1"
     showgrid="false"
     inkscape:window-width="1280"
     inkscape:window-height="962"
     inkscape:window-x="-8"
     inkscape:window-y="-8"
     inkscape:window-maximized="1" />
  <metadata
     id="metadata8229">
    <rdf:RDF>
      <cc:Work
         rdf:about="">
        <dc:format>image/svg+xml</dc:format>
        <dc:type
           rdf:resource="http://purl.org/dc/dcmitype/StillImage" />
        <dc:title></dc:title>
      </cc:Work>
    </rdf:RDF>
  </metadata>
  <g
     inkscape:label="Layer 1"
     inkscape:groupmode="layer"
     id="layer1">
    <path
       id="path3925-5"
       style="fill:#66aa00;fill-opacity:1;stroke:none;stroke-width:0.89999998000000003;stroke-linecap:round;stroke-linejoin:round;stroke-miterlimit:10;stroke-opacity:1;stroke-dasharray:none;display:inline"
       d="m 86.796429,628.49791 563.550001,0 0,-563.700023 -563.550001,0 0,563.700023"
       inkscape:connector-curvature="0" />
    <path
       style="fill:#ffffff;fill-opacity:1;fill-rule:nonzero;stroke:none;display:inline"
       d="m 361.53651,69.785687 c -42.64894,0.29549 -84.82127,12.07376 -122.46453,31.778983 -120.0971,60.42138 -179.685347,214.75236 -130.78087,340.12353 24.80557,68.74315 78.19762,126.5765 144.79427,156.7344 30.51274,14.04165 63.6834,22.45626 97.19514,24.78978 19.30078,-0.15167 38.74893,0.27177 57.91813,-2.21978 56.22933,-8.37045 109.85014,-33.96591 150.90987,-73.25837 52.9352,-49.96149 85.33006,-121.44587 86.52098,-194.45608 1.08481,-4.29051 -0.078,-10.21329 -5.80616,-8.6014 -67.47212,0 -134.94422,0 -202.41633,0 -0.33425,-19.76017 0.71428,-39.61305 -0.68865,-59.3191 -0.86077,-4.20852 -6.17958,-2.80682 -7.33771,0.52242 -19.49105,28.23235 -38.98583,56.7691 -57.34813,85.70161 -3.823,6.71099 -2.13447,15.02403 2.7105,20.70757 18.59585,28.2842 37.0355,56.79499 56.72733,84.32381 3.55326,2.90407 6.28192,-1.87176 5.58046,-5.10553 0.59152,-18.74457 0.26677,-37.50459 0.3562,-56.25578 44.30257,0.13423 88.61282,-0.33473 132.90992,0.45118 -18.26709,54.19177 -59.19736,99.76651 -111.10834,123.79718 -50.54179,24.09232 -110.90977,26.79185 -163.54525,7.47423 -62.73071,-22.49396 -113.50544,-76.16062 -131.60387,-140.31887 -7.25303,-24.29967 -9.70664,-49.79666 -8.03049,-75.13312 3.17198,-53.39479 28.22406,-104.99837 67.52169,-141.19851 36.4109,-34.35955 85.37787,-54.54557 135.3245,-56.61326 56.37075,-3.13422 113.10498,18.00272 154.44983,56.18559 3.02818,2.391 7.213,8.79988 11.00138,4.05525 13.23549,-13.47737 27.08061,-26.53527 39.93585,-40.27427 1.53482,-4.50853 -4.78731,-6.77742 -7.08704,-9.98745 -44.66981,-41.82693 -103.66773,-68.253333 -164.71916,-73.166543 -10.29282,-0.58626 -20.61057,-0.80996 -30.91952,-0.73747 z"
       id="path8184"
       inkscape:connector-curvature="0" />
  </g>
  <g
     inkscape:groupmode="layer"
     id="layer2"
     inkscape:label="Tags">
    <g
       transform="matrix(0.51602924,0,0,0.51602924,49.905123,201.87714)"
       id="g5389">
      <path
         transform="translate(-6.5242004,3.8189087)"
         d="m 680,522.36218 c 0,166.4744 -134.95416,301.42856 -301.42856,301.42856 -166.47439,0 -301.428557,-134.95416 -301.428557,-301.42856 0,-166.47439 134.954167,-301.42856 301.428557,-301.42856 C 545.04584,220.93362 680,355.88779 680,522.36218 z"
         sodipodi:ry="301.42856"
         sodipodi:rx="301.42856"
         sodipodi:cy="522.36218"
         sodipodi:cx="378.57144"
         id="path4293"
         style="fill:#aa0066;fill-opacity:1;fill-rule:nonzero;stroke:none"
         sodipodi:type="arc" />
      <rect
         ry="0.94021851"
         rx="0.9587751"
         y="443.52802"
         x="93.4758"
         height="165.30612"
         width="557.14288"
         id="rect4803"
         style="fill:#ffffff;fill-opacity:1;fill-rule:nonzero;stroke:none" />
    </g>
  </g>
</svg>
