<?xml version="1.0" encoding="UTF-8" standalone="no"?>
<!-- Created with Inkscape (http://www.inkscape.org/) -->

<svg
   xmlns:dc="http://purl.org/dc/elements/1.1/"
   xmlns:cc="http://creativecommons.org/ns#"
   xmlns:rdf="http://www.w3.org/1999/02/22-rdf-syntax-ns#"
   xmlns:svg="http://www.w3.org/2000/svg"
   xmlns="http://www.w3.org/2000/svg"
   xmlns:sodipodi="http://sodipodi.sourceforge.net/DTD/sodipodi-0.dtd"
   xmlns:inkscape="http://www.inkscape.org/namespaces/inkscape"
   width="744.09448819"
   height="1052.3622047"
   id="svg8224"
   version="1.1"
   inkscape:version="0.48.2 r9819"
   sodipodi:docname="GradelyLogo.svg">
  <defs
     id="defs8226" />
  <sodipodi:namedview
     id="base"
     pagecolor="#ffffff"
     bordercolor="#666666"
     borderopacity="1.0"
     inkscape:pageopacity="0.0"
     inkscape:pageshadow="2"
     inkscape:zoom="0.98994949"
     inkscape:cx="351.60629"
     inkscape:cy="641.21831"
     inkscape:document-units="px"
     inkscape:current-layer="layer1"
     showgrid="false"
     inkscape:window-width="1280"
     inkscape:window-height="962"
     inkscape:window-x="-8"
     inkscape:window-y="-8"
     inkscape:window-maximized="1" />
  <metadata
     id="metadata8229">
    <rdf:RDF>
      <cc:Work
         rdf:about="">
        <dc:format>image/svg+xml</dc:format>
        <dc:type
           rdf:resource="http://purl.org/dc/dcmitype/StillImage" />
        <dc:title></dc:title>
      </cc:Work>
    </rdf:RDF>
  </metadata>
  <g
     inkscape:label="Layer 1"
     inkscape:groupmode="layer"
     id="layer1">
    <path
       id="path3925-5"
       style="fill:#66aa00;fill-opacity:1;stroke:none;display:inline"
       d="m 86.796429,225.53352 160.692861,0 0,-160.735633 -160.692861,0 0,160.735633"
       inkscape:connector-curvature="0" />
    <path
       style="fill:#ffffff;fill-opacity:1;fill-rule:nonzero;stroke:none;display:inline"
       d="m 165.13689,66.220128 c -12.16108,0.08426 -24.18627,3.442759 -34.92001,9.061584 -34.244961,17.228789 -51.236188,61.235328 -37.291373,96.984158 7.073157,19.60169 22.297573,36.09252 41.287203,44.69186 8.70053,4.00389 18.15894,6.40327 27.71461,7.06866 5.5035,-0.0433 11.04902,0.0775 16.515,-0.63296 16.03345,-2.38678 31.3231,-9.68517 43.03103,-20.88918 15.09415,-14.24621 24.33135,-34.62955 24.67093,-55.44797 0.30933,-1.22341 -0.0222,-2.91226 -1.65559,-2.45264 -19.23926,0 -38.47852,0 -57.71778,0 -0.0953,-5.63449 0.20367,-11.29542 -0.19637,-16.91448 -0.24544,-1.20003 -1.76207,-0.80034 -2.0923,0.14897 -5.55776,8.05028 -11.11657,16.18736 -16.35247,24.43729 -1.09011,1.9136 -0.60863,4.28401 0.77288,5.90464 5.30249,8.06507 10.56045,16.19475 16.17545,24.04442 1.01319,0.82808 1.79125,-0.53372 1.59124,-1.45581 0.16867,-5.3449 0.0761,-10.69421 0.10157,-16.04099 12.6326,0.0383 25.2674,-0.0954 37.89845,0.12865 -5.20875,15.45245 -16.87977,28.44781 -31.68187,35.30001 -14.41168,6.86978 -31.62524,7.63953 -46.63393,2.13123 -17.88728,-6.41401 -32.36539,-21.71674 -37.52604,-40.01107 -2.06816,-6.9289 -2.76779,-14.19922 -2.28985,-21.42375 0.90447,-15.2252 8.04792,-29.93965 19.2534,-40.2619 10.38235,-9.797417 24.34498,-15.553338 38.58696,-16.142927 16.07378,-0.893704 32.2512,5.133366 44.04043,16.020977 0.86347,0.68178 2.05674,2.50923 3.13698,1.15633 3.77402,-3.842988 7.72187,-7.566369 11.38746,-11.483961 0.43765,-1.28558 -1.36507,-1.93254 -2.02083,-2.847861 -12.73732,-11.926695 -29.56022,-19.462023 -46.96866,-20.862995 -2.93494,-0.167169 -5.87698,-0.230955 -8.81652,-0.210285 z"
       id="path8184"
       inkscape:connector-curvature="0" />
    <text
       xml:space="preserve"
       style="font-size:92.98654175px;font-style:normal;font-variant:normal;font-weight:normal;font-stretch:normal;line-height:125%;letter-spacing:0px;word-spacing:0px;fill:#66aa00;fill-opacity:1;stroke:none;font-family:Verdana;-inkscape-font-specification:Verdana"
       x="251.03317"
       y="223.95609"
       id="text2999"
       sodipodi:linespacing="125%"><tspan
         sodipodi:role="line"
         id="tspan3001"
         x="251.03317"
         y="223.95609">radely</tspan></text>
  </g>
</svg>
